<svg xmlns="http://www.w3.org/2000/svg" xmlns:xlink="http://www.w3.org/1999/xlink" version="1.1" width="256" height="256" viewBox="0 0 256 256" xml:space="preserve">
<g style="stroke: none; stroke-width: 0; stroke-dasharray: none; stroke-linecap: butt; stroke-linejoin: miter; stroke-miterlimit: 10; fill: none; fill-rule: nonzero; opacity: 1;" transform="translate(1.4065934065934016 1.4065934065934016) scale(2.81 2.81)">
	<path d="M 45 17.221 L 28.872 30.613 V 90 h 8.711 V 69.278 c 0 -2.197 1.781 -3.979 3.979 -3.979 h 6.454 c 2.197 0 3.979 1.781 3.979 3.979 V 90 h 9.135 V 30.613 L 45 17.221 z M 45 57.111 c -4.097 0 -7.418 -3.321 -7.418 -7.418 s 3.321 -7.418 7.418 -7.418 s 7.418 3.321 7.418 7.418 S 49.097 57.111 45 57.111 z" style="stroke: none; stroke-width: 1; stroke-dasharray: none; stroke-linecap: butt; stroke-linejoin: miter; stroke-miterlimit: 10; fill: rgb(0,0,0); fill-rule: nonzero; opacity: 1;" transform=" matrix(1 0 0 1 0 0) " stroke-linecap="round"/>
	<polygon points="59.08,12.6 45,12.6 45,2.44 59.08,2.44 56,7.52 " style="stroke: none; stroke-width: 1; stroke-dasharray: none; stroke-linecap: butt; stroke-linejoin: miter; stroke-miterlimit: 10; fill: rgb(0,0,0); fill-rule: nonzero; opacity: 1;" transform="  matrix(1 0 0 1 0 0) "/>
	<path d="M 45 20.53 c -0.565 0 -1.023 -0.458 -1.023 -1.023 V 1.023 C 43.977 0.458 44.435 0 45 0 s 1.023 0.458 1.023 1.023 v 18.483 C 46.023 20.072 45.565 20.53 45 20.53 z" style="stroke: none; stroke-width: 1; stroke-dasharray: none; stroke-linecap: butt; stroke-linejoin: miter; stroke-miterlimit: 10; fill: rgb(0,0,0); fill-rule: nonzero; opacity: 1;" transform=" matrix(1 0 0 1 0 0) " stroke-linecap="round"/>
	<polygon points="18.67,45.97 2.8,57.91 2.8,57.91 2.8,57.91 2.8,90 25.14,90 25.14,57.91 25.14,55.41 25.14,45.97 " style="stroke: none; stroke-width: 1; stroke-dasharray: none; stroke-linecap: butt; stroke-linejoin: miter; stroke-miterlimit: 10; fill: rgb(0,0,0); fill-rule: nonzero; opacity: 1;" transform="  matrix(1 0 0 1 0 0) "/>
	<polygon points="71.33,45.97 87.2,57.91 87.2,57.91 87.2,57.91 87.2,90 64.86,90 64.86,57.91 64.86,55.41 64.86,45.97 " style="stroke: none; stroke-width: 1; stroke-dasharray: none; stroke-linecap: butt; stroke-linejoin: miter; stroke-miterlimit: 10; fill: rgb(0,0,0); fill-rule: nonzero; opacity: 1;" transform="  matrix(1 0 0 1 0 0) "/>
</g>
</svg>
